<svg aria-hidden="true" style="position: absolute; width: 0; height: 0; overflow: hidden;" version="1.1" xmlns="http://www.w3.org/2000/svg" xmlns:xlink="http://www.w3.org/1999/xlink">
<defs>
<symbol id="icon-down" viewBox="0 0 53 32">
<path fill="#eb5757" style="fill: var(--color1, #eb5757)" d="M1.562 1.562c2.083-2.083 5.46-2.083 7.543 0l17.562 17.562 17.562-17.562c2.083-2.083 5.46-2.083 7.543 0s2.083 5.46 0 7.543l-21.333 21.333c-2.083 2.083-5.46 2.083-7.543 0l-21.333-21.333c-2.083-2.083-2.083-5.46 0-7.543z"></path>
</symbol>
<symbol id="icon-up" viewBox="0 0 53 32">
<path fill="#50cd89" style="fill: var(--color2, #50cd89)" d="M51.771 30.438c-2.083 2.083-5.46 2.083-7.542 0l-17.562-17.562-17.562 17.562c-2.083 2.083-5.46 2.083-7.543 0s-2.083-5.46 0-7.543l21.333-21.333c2.083-2.083 5.46-2.083 7.543 0l21.333 21.333c2.083 2.083 2.083 5.46 0 7.543z"></path>
</symbol>
<symbol id="icon-plan" viewBox="0 0 26 32">
<path fill="none" stroke="#fff" style="stroke: var(--color3, #fff)" stroke-linejoin="miter" stroke-linecap="round" stroke-miterlimit="4" stroke-width="2.8235" d="M8.471 5.020h-3.137c-1.733 0-3.137 1.405-3.137 3.137v18.824c0 1.733 1.405 3.137 3.137 3.137h15.686c1.733 0 3.137-1.405 3.137-3.137v-18.824c0-1.733-1.405-3.137-3.137-3.137h-3.137M8.471 5.020c0 1.733 1.405 3.137 3.137 3.137h3.137c1.733 0 3.137-1.405 3.137-3.137M8.471 5.020c0-1.733 1.405-3.137 3.137-3.137h3.137c1.733 0 3.137 1.405 3.137 3.137M13.177 16h4.706M13.177 22.275h4.706M8.471 16h0.016M8.471 22.275h0.016"></path>
</symbol>
<symbol id="icon-security" viewBox="0 0 33 32">
<path fill="none" stroke="#fff" style="stroke: var(--color3, #fff)" stroke-linejoin="round" stroke-linecap="round" stroke-miterlimit="4" stroke-width="2.9091" d="M11.636 16.485l3.232 3.232 6.465-6.465M30.413 6.763c-0.331 0.017-0.664 0.025-0.999 0.025-4.967 0-9.498-1.867-12.929-4.938-3.431 3.071-7.962 4.938-12.929 4.938-0.335 0-0.668-0.008-0.999-0.025-0.403 1.557-0.618 3.191-0.618 4.874 0 9.037 6.181 16.63 14.545 18.783 8.365-2.153 14.545-9.746 14.545-18.783 0-1.683-0.215-3.316-0.617-4.874z"></path>
</symbol>
<symbol id="icon-done" viewBox="0 0 26 32">
<path fill="#fff" style="fill: var(--color3, #fff)" d="M9.469 18.139c-0.551-0.551-1.445-0.551-1.997 0s-0.551 1.445 0 1.997l1.997-1.997zM11.608 22.275l-0.998 0.998c0.551 0.551 1.445 0.551 1.997 0l-0.998-0.998zM18.881 16.998c0.551-0.551 0.551-1.445 0-1.997s-1.445-0.551-1.997 0l1.997 1.997zM22.745 8.157v18.824h2.824v-18.824h-2.824zM21.020 28.706h-15.686v2.824h15.686v-2.824zM3.608 26.98v-18.824h-2.824v18.824h2.824zM5.333 6.431h3.137v-2.824h-3.137v2.824zM17.883 6.431h3.137v-2.824h-3.137v2.824zM5.333 28.706c-0.953 0-1.726-0.773-1.726-1.725h-2.824c0 2.512 2.037 4.549 4.549 4.549v-2.824zM22.745 26.98c0 0.953-0.773 1.725-1.725 1.725v2.824c2.512 0 4.549-2.037 4.549-4.549h-2.824zM25.569 8.157c0-2.512-2.037-4.549-4.549-4.549v2.824c0.953 0 1.725 0.773 1.725 1.726h2.824zM3.608 8.157c0-0.953 0.773-1.726 1.725-1.726v-2.824c-2.512 0-4.549 2.037-4.549 4.549h2.824zM7.472 20.136l3.137 3.137 1.997-1.997-3.137-3.137-1.997 1.997zM12.606 23.273l6.274-6.274-1.997-1.997-6.275 6.275 1.997 1.997zM11.608 3.294h3.137v-2.824h-3.137v2.824zM14.745 6.745h-3.137v2.824h3.137v-2.824zM11.608 6.745c-0.953 0-1.725-0.773-1.725-1.726h-2.824c0 2.512 2.037 4.549 4.549 4.549v-2.824zM16.471 5.020c0 0.953-0.773 1.726-1.726 1.726v2.824c2.512 0 4.549-2.037 4.549-4.549h-2.824zM14.745 3.294c0.953 0 1.726 0.773 1.726 1.726h2.824c0-2.512-2.037-4.549-4.549-4.549v2.824zM11.608 0.471c-2.512 0-4.549 2.037-4.549 4.549h2.824c0-0.953 0.773-1.726 1.725-1.726v-2.824z"></path>
</symbol>
<symbol id="icon-calendar" viewBox="0 0 32 32">
<path fill="none" stroke="#fff" style="stroke: var(--color3, #fff)" stroke-linejoin="round" stroke-linecap="round" stroke-miterlimit="4" stroke-width="2.8235" d="M9.725 8.157v-6.274M22.275 8.157v-6.274M8.157 14.431h15.686M5.020 30.118h21.961c1.733 0 3.137-1.405 3.137-3.137v-18.824c0-1.733-1.405-3.137-3.137-3.137h-21.961c-1.733 0-3.137 1.405-3.137 3.137v18.824c0 1.733 1.405 3.137 3.137 3.137z"></path>
</symbol>
<symbol id="icon-logo" viewBox="0 0 31 32">
<path fill="#101010" style="fill: var(--color4, #101010)" d="M31.256 16c0 8.631-6.997 15.628-15.628 15.628s-15.628-6.997-15.628-15.628c0-8.631 6.997-15.628 15.628-15.628s15.628 6.997 15.628 15.628z"></path>
<path fill="#fff" style="fill: var(--color3, #fff)" d="M20.427 19.677l3.387 1.711c-0.826 1.073-1.876 1.932-3.151 2.576-1.263 0.644-2.635 0.966-4.116 0.966-1.675 0-3.205-0.401-4.589-1.203-1.372-0.802-2.471-1.875-3.296-3.22-0.813-1.356-1.22-2.852-1.22-4.491 0-1.243 0.237-2.401 0.71-3.474 0.474-1.085 1.123-2.033 1.949-2.847 0.838-0.825 1.809-1.469 2.914-1.932s2.283-0.695 3.533-0.695c1.481 0 2.853 0.322 4.116 0.966 1.275 0.644 2.325 1.508 3.151 2.593l-3.387 1.711c-0.51-0.565-1.105-0.994-1.785-1.288-0.68-0.305-1.378-0.458-2.094-0.458-0.996 0-1.9 0.254-2.714 0.763-0.801 0.497-1.439 1.158-1.912 1.983-0.461 0.813-0.692 1.706-0.692 2.677 0 0.96 0.237 1.853 0.71 2.677 0.474 0.813 1.111 1.469 1.912 1.966 0.813 0.497 1.712 0.746 2.695 0.746 0.753 0 1.469-0.158 2.149-0.474s1.257-0.734 1.73-1.254z"></path>
</symbol>
<symbol id="icon-left" viewBox="0 0 37 32">
<path fill="#ced1d8" style="fill: var(--color5, #ced1d8)" d="M17.684 29.797c-0.803 0.803-2.106 0.803-2.909 0l-12.343-12.343c-0.803-0.803-0.803-2.106 0-2.909l12.343-12.343c0.803-0.803 2.106-0.803 2.909 0s0.803 2.106 0 2.909l-8.831 8.831h23.834c1.136 0 2.057 0.921 2.057 2.057s-0.921 2.057-2.057 2.057h-23.834l8.831 8.831c0.803 0.803 0.803 2.106 0 2.909z"></path>
</symbol>
<symbol id="icon-right" viewBox="0 0 37 32">
<path fill="#fff" style="fill: var(--color3, #fff)" d="M18.888 2.203c0.803-0.803 2.106-0.803 2.909 0l12.343 12.343c0.803 0.803 0.803 2.106 0 2.909l-12.343 12.343c-0.803 0.803-2.106 0.803-2.909 0s-0.803-2.106 0-2.909l8.831-8.831h-23.834c-1.136 0-2.057-0.921-2.057-2.057s0.921-2.057 2.057-2.057h23.834l-8.831-8.831c-0.803-0.803-0.803-2.106 0-2.909z"></path>
</symbol>
<symbol id="icon-star" viewBox="0 0 32 32">
<path fill="#ffd33c" style="fill: var(--color6, #ffd33c)" d="M17.963 1.274l3.249 6.872c0.318 0.675 0.933 1.142 1.646 1.251l7.268 1.108c1.796 0.274 2.51 2.579 1.211 3.899l-5.255 5.347c-0.516 0.526-0.752 1.282-0.629 2.024l1.24 7.548c0.305 1.867-1.572 3.292-3.176 2.409l-6.496-3.566c-0.637-0.35-1.399-0.35-2.038 0l-6.496 3.566c-1.605 0.883-3.482-0.541-3.175-2.409l1.238-7.548c0.122-0.742-0.113-1.498-0.629-2.024l-5.255-5.347c-1.3-1.32-0.585-3.624 1.211-3.899l7.268-1.108c0.713-0.108 1.329-0.576 1.647-1.251l3.247-6.872c0.803-1.699 3.123-1.699 3.926 0z"></path>
</symbol>
<symbol id="icon-move" viewBox="0 0 50 32">
<path fill="none" stroke="#7e8492" style="stroke: var(--color7, #7e8492)" stroke-linejoin="round" stroke-linecap="round" stroke-miterlimit="4" stroke-width="5.3333" d="M33.777 4.148l11.852 11.852-11.852 11.852M16 27.852l-11.852-11.852 11.852-11.852"></path>
</symbol>
<symbol id="icon-group" viewBox="0 0 37 32">
<path fill="#fff" style="fill: var(--color3, #fff)" d="M24.59 6.737c0 3.349-2.715 6.063-6.063 6.063s-6.063-2.715-6.063-6.063 2.715-6.063 6.063-6.063c3.349 0 6.063 2.715 6.063 6.063z"></path>
<path fill="#fff" style="fill: var(--color3, #fff)" d="M34.695 10.779c0 2.232-1.81 4.042-4.042 4.042s-4.042-1.81-4.042-4.042c0-2.232 1.81-4.042 4.042-4.042s4.042 1.81 4.042 4.042z"></path>
<path fill="#fff" style="fill: var(--color3, #fff)" d="M26.611 24.926c0-4.465-3.619-8.084-8.084-8.084s-8.084 3.619-8.084 8.084v6.063h16.168v-6.063z"></path>
<path fill="#fff" style="fill: var(--color3, #fff)" d="M10.442 10.779c0 2.232-1.81 4.042-4.042 4.042s-4.042-1.81-4.042-4.042c0-2.232 1.81-4.042 4.042-4.042s4.042 1.81 4.042 4.042z"></path>
<path fill="#fff" style="fill: var(--color3, #fff)" d="M30.653 30.989v-6.063c0-2.131-0.549-4.133-1.514-5.872 0.484-0.124 0.991-0.191 1.514-0.191 3.349 0 6.063 2.715 6.063 6.063v6.063h-6.063z"></path>
<path fill="#fff" style="fill: var(--color3, #fff)" d="M7.915 19.054c-0.965 1.74-1.514 3.742-1.514 5.872v6.063h-6.063v-6.063c0-3.349 2.715-6.063 6.063-6.063 0.523 0 1.030 0.066 1.514 0.191z"></path>
</symbol>
<symbol id="icon-success-graphic" viewBox="0 0 34 32">
<path fill="#fff" style="fill: var(--color3, #fff)" d="M2.695 1.011h28.295c1.116 0 2.021 0.905 2.021 2.021s-0.905 2.021-2.021 2.021v16.168c0 2.232-1.81 4.042-4.042 4.042h-5.226l2.613 2.613c0.789 0.789 0.789 2.069 0 2.858s-2.069 0.789-2.858 0l-4.634-4.634-4.634 4.634c-0.789 0.789-2.069 0.789-2.858 0s-0.789-2.069 0-2.858l2.613-2.613h-5.226c-2.232 0-4.042-1.81-4.042-4.042v-16.168c-1.116 0-2.021-0.905-2.021-2.021s0.905-2.021 2.021-2.021zM26.355 10.524c0.789-0.789 0.789-2.069 0-2.858s-2.069-0.789-2.858 0l-6.655 6.655-2.613-2.613c-0.789-0.789-2.069-0.789-2.858 0l-4.042 4.042c-0.789 0.789-0.789 2.069 0 2.858s2.069 0.789 2.858 0l2.613-2.613 2.613 2.613c0.789 0.789 2.069 0.789 2.858 0l8.084-8.084z"></path>
</symbol>
<symbol id="icon-success" viewBox="0 0 53 32">
<path fill="#fff" style="fill: var(--color3, #fff)" d="M33.066 6.4c-1.767 0-3.2-1.433-3.2-3.2s1.433-3.2 3.2-3.2h16c1.767 0 3.2 1.433 3.2 3.2v16c0 1.767-1.433 3.2-3.2 3.2s-3.2-1.433-3.2-3.2v-8.274l-13.737 13.737c-1.25 1.25-3.276 1.25-4.525 0l-7.337-7.337-13.737 13.737c-1.25 1.25-3.276 1.25-4.525 0s-1.25-3.276 0-4.525l16-16c1.25-1.25 3.276-1.25 4.526 0l7.337 7.337 11.474-11.475h-8.274z"></path>
</symbol>
<symbol id="icon-yes1" viewBox="0 0 32 32">
<path fill="#fff" style="fill: var(--color3, #fff)" d="M16 31.36c-8.483 0-15.36-6.877-15.36-15.36s6.877-15.36 15.36-15.36c8.483 0 15.36 6.877 15.36 15.36s-6.877 15.36-15.36 15.36zM21.76 14.080c-1.060 0-1.92-0.86-1.92-1.92s0.86-1.92 1.92-1.92c1.060 0 1.92 0.86 1.92 1.92s-0.86 1.92-1.92 1.92zM8.32 12.16c0 1.060 0.86 1.92 1.92 1.92s1.92-0.86 1.92-1.92c0-1.060-0.86-1.92-1.92-1.92s-1.92 0.86-1.92 1.92zM9.212 22.788c-0.75-0.75-0.75-1.965 0-2.715s1.965-0.75 2.715 0c2.249 2.249 5.896 2.249 8.146 0 0.75-0.75 1.965-0.75 2.715 0s0.75 1.965 0 2.715c-3.749 3.749-9.827 3.749-13.576 0z"></path>
</symbol>
<symbol id="icon-google" viewBox="0 0 96 32">
<path fill="#ea4335" style="fill: var(--color8, #ea4335)" d="M40.868 16.41c0 4.442-3.503 7.715-7.802 7.715s-7.802-3.273-7.802-7.715c0-4.473 3.503-7.715 7.802-7.715s7.802 3.242 7.802 7.715zM37.453 16.41c0-2.776-2.030-4.675-4.386-4.675s-4.386 1.899-4.386 4.675c0 2.748 2.030 4.675 4.386 4.675s4.386-1.93 4.386-4.675z"></path>
<path fill="#fbbc05" style="fill: var(--color9, #fbbc05)" d="M57.699 16.41c0 4.442-3.503 7.715-7.802 7.715s-7.802-3.273-7.802-7.715c0-4.47 3.503-7.715 7.802-7.715s7.802 3.242 7.802 7.715zM54.283 16.41c0-2.776-2.030-4.675-4.386-4.675s-4.386 1.899-4.386 4.675c0 2.748 2.030 4.675 4.386 4.675s4.386-1.93 4.386-4.675z"></path>
<path fill="#4285f4" style="fill: var(--color10, #4285f4)" d="M73.828 9.162v13.85c0 5.697-3.387 8.024-7.391 8.024-3.769 0-6.038-2.501-6.894-4.546l2.973-1.228c0.529 1.256 1.827 2.737 3.917 2.737 2.563 0 4.151-1.569 4.151-4.522v-1.11h-0.119c-0.764 0.936-2.237 1.753-4.095 1.753-3.889 0-7.451-3.36-7.451-7.684 0-4.355 3.562-7.743 7.451-7.743 1.855 0 3.328 0.817 4.095 1.725h0.119v-1.256h3.243v-0.003zM70.826 16.438c0-2.716-1.827-4.703-4.152-4.703-2.356 0-4.33 1.986-4.33 4.703 0 2.689 1.974 4.647 4.33 4.647 2.325 0 4.152-1.958 4.152-4.647z"></path>
<path fill="#34a853" style="fill: var(--color11, #34a853)" d="M79.175 1.044v22.609h-3.331v-22.609h3.331z"></path>
<path fill="#ea4335" style="fill: var(--color8, #ea4335)" d="M92.156 18.95l2.651 1.753c-0.856 1.256-2.917 3.419-6.48 3.419-4.418 0-7.717-3.388-7.717-7.715 0-4.588 3.327-7.715 7.335-7.715 4.036 0 6.010 3.186 6.655 4.908l0.354 0.877-10.396 4.271c0.796 1.548 2.034 2.337 3.769 2.337 1.739 0 2.945-0.849 3.829-2.136zM83.996 16.174l6.95-2.863c-0.382-0.964-1.532-1.635-2.886-1.635-1.736 0-4.152 1.52-4.064 4.497z"></path>
<path fill="#4285f4" style="fill: var(--color10, #4285f4)" d="M12.657 14.404v-3.273h11.119c0.109 0.57 0.165 1.245 0.165 1.976 0 2.456-0.677 5.492-2.858 7.656-2.121 2.191-4.832 3.36-8.422 3.36-6.655 0-12.251-5.377-12.251-11.979s5.596-11.979 12.251-11.979c3.682 0 6.304 1.433 8.275 3.301l-2.328 2.31c-1.413-1.315-3.328-2.337-5.95-2.337-4.86 0-8.661 3.885-8.661 8.706s3.801 8.706 8.661 8.706c3.152 0 4.947-1.256 6.098-2.396 0.933-0.925 1.546-2.247 1.788-4.052l-7.886 0.003z"></path>
</symbol>
<symbol id="icon-ola" viewBox="0 0 93 32">
<path fill="#1d1e25" style="fill: var(--color12, #1d1e25)" d="M81.678 14.913l-5.87 10.157-5.008 0.020 10.879-19.118 10.838 19.118h-5.088l-5.75-10.177zM65.871 20.669h5.609l-2.605 4.422h-7.311l0.020-5.384v-13.617h4.307l-0.020 14.579h-0.001zM50.486 6.091c5.349 0.020 9.676 4.263 9.656 9.509-0.020 5.226-4.347 9.471-9.697 9.471-5.329-0.020-9.656-4.263-9.656-9.51 0.020-5.226 4.347-9.47 9.697-9.47zM50.466 20.65c2.864 0 5.167-2.26 5.167-5.050 0.021-2.789-2.303-5.069-5.147-5.069-2.845-0.020-5.169 2.26-5.169 5.050-0.020 2.789 2.304 5.069 5.148 5.069h0.001zM32.817 14.091c-0.059-0.787-0.261-1.828-0.561-2.829-0.618-2.068-1.693-3.969-3.145-5.561-0.762-0.825-1.622-1.592-2.906-2.495-0.978-0.485-1.94-1.002-2.884-1.552-0.621-0.354-1.363-0.787-2.343-1.101-1.163-0.276-2.352-0.427-3.547-0.451-1.16-0.040-2.324 0.060-3.445 0.275-1.182 0.196-2.164 0.51-3.466 0.825-2.946 1.277-5.229 3.202-7.192 5.757-6.851 9.607-0.661 23.067 10.779 24.657 1.883 0.256 3.767 0.157 5.549-0.255l1.263-0.334c0.040-0.020 0.1-0.040 0.14-0.040l1.443-0.55c0.079-0.040 0.14-0.060 0.22-0.099l0.601-0.275c1.153-0.572 2.236-1.277 3.225-2.102-0.901 0.822-1.881 1.552-2.925 2.18l0.059 0.040c0.201-0.060 0.381-0.119 0.581-0.157 0 0 0 0.314-0.040 0.255-0.32 0.236 0.18 0.020 0.821-0.315 0.642-0.334 1.263-0.747 1.823-1.218 0.822-0.687 1.543-1.434 2.565-2.652 1.041-1.828 2.345-3.419 2.945-5.561 0.2-0.57 0.38-1.237 0.501-1.925 0.119-0.687 0.2-1.395 0.2-2.122-0.020-0.727-0.1-1.474-0.261-2.397zM17.992 30.241c3.506-0.551 6.45-2.495 8.855-5.148 0.662-0.963 1.182-1.848 1.823-2.81 0.801-1.965 0.742-3.713 1.002-4.951 0.321-2.241-0.44-4.048-1.081-5.974-0.982-2.24-2.284-3.91-4.568-5.207-5.77-3.576-13.623-2.575-17.369 2.77-0.020 0-0.121 0.137-0.321 0.412 0.261-1.1 0.922-1.748 1.583-2.378 1.964-1.611 4.248-2.889 6.852-3.516 2.946-0.315 5.869 0 8.493 1.277 3.927 2.239 6.532 5.757 7.192 9.921v3.852c-0.821 6.307-6.23 11.101-12.461 11.75zM32.396 15.897c-0.141-9.234-9.296-15.462-18.211-14.204-2.604 0.647-5.45 1.944-7.473 3.752-0.982 0.647-1.442 1.847-2.424 2.809-3.927 5.757-3.245 13.125 1.642 17.606 0.627 0.622 1.296 1.2 2.003 1.729-4.086-2.457-5.93-6.172-6.571-10.689 0-1.612 0.32-3.203 0.661-4.814 2.285-7.054 9.476-12.182 17.311-10.885 1.302 0.315 2.604 0.648 3.927 0.963 1.642 0.647 3.265 1.611 4.567 2.889 1.302 1.276 2.284 2.888 3.266 4.478 0.66 1.278 0.982 2.889 1.302 4.166 0.059 0.727 0.059 1.474 0 2.201l-0.001-0.001z"></path>
<path fill="#fff" style="fill: var(--color3, #fff)" d="M24.263 16.036c0 3.969-3.325 7.192-7.432 7.192-4.106 0-7.432-3.222-7.432-7.192s3.325-7.191 7.432-7.191c4.107 0 7.432 3.222 7.432 7.192v-0.001z"></path>
<path fill="#d7df23" style="fill: var(--color13, #d7df23)" d="M24.303 14.818c-0.1-0.55-0.261-0.982-0.421-1.591-0.642-1.337-1.583-2.378-2.826-3.262-4.647-3.084-11.039-0.118-11.719 5.149-0.26 2.083 0.481 4.087 1.803 5.62-0.401-0.413-0.841-0.845-1.142-1.337l-0.040 0.040c0.040 0.117 0.2 0.196 0.24 0.314 0 0-0.161 0-0.12-0.020-0.12-0.136-0.020 0.080 0.16 0.374 0.161 0.295 0.361 0.571 0.601 0.826 0.341 0.374 0.701 0.707 1.302 1.16 0.883 0.451 1.663 1.041 2.685 1.316 0.281 0.080 0.601 0.157 0.922 0.216 0.34 0.060 0.661 0.080 1.022 0.080 0.34 0 0.701-0.040 1.142-0.12 0.454-0.054 0.903-0.145 1.342-0.274 0.98-0.296 1.884-0.807 2.645-1.494 0.381-0.353 0.922-0.805 1.342-1.395 0.341-0.667 0.381-1.002 0.541-1.297s0.36-0.628 0.501-1.081c0.115-0.537 0.182-1.082 0.2-1.631-0.020-0.55-0.059-1.081-0.18-1.592l-0.001-0.001zM19.535 11.164c0.681 0.393 0.782 0.451 0.421 0.196 0.522 0.117 0.842 0.412 1.162 0.707 0.782 0.884 1.422 1.925 1.743 3.124 0.18 1.356 0.040 2.711-0.541 3.911-1.041 1.827-2.705 3.045-4.688 3.379-0.22 0-0.46 0-0.681 0.020 0.561-0.099 0.922-0.452 1.944-0.826 1.101-0.392 2.343-2.219 2.945-3.281 1.762-2.889-0.321-5.56-2.305-7.23zM15.769 22.519c-3.045-0.314-5.389-2.809-5.71-5.698 0.28 1.612 1.242 2.849 2.544 3.95 0.461 0.295 1.142 0.707 1.603 1.002 0.781 0.295 1.242 0.61 2.003 0.747h-0.44v-0.001zM23.962 17.274c-0.139 0.61-0.28 1.198-0.421 1.808-0.3 0.747-0.741 1.513-1.342 2.122s-1.363 1.081-2.123 1.533c-0.601 0.314-1.363 0.471-1.984 0.628-0.361 0.040-0.782-0.117-1.142-0.137 4.448-0.119 7.493-4.263 6.832-8.37-0.321-1.198-0.962-2.24-1.744-3.281-0.32-0.452-0.942-0.727-1.402-1.179-2.785-1.748-6.47-1.394-8.574 0.905-0.295 0.302-0.57 0.624-0.822 0.962 1.123-1.651 2.926-2.809 5.089-3.144 0.762-0.020 1.543 0.119 2.304 0.256 3.366 1.021 5.87 4.283 5.329 7.899v-0.001z"></path>
</symbol>
<symbol id="icon-walmart" viewBox="0 0 129 32">
<path fill="#041e42" style="fill: var(--color14, #041e42)" d="M45.968 11.671v1.7h0.052c0.616-0.91 1.64-1.982 3.909-1.982 1.765 0 3.119 0.892 3.699 2.238h0.052c0.496-0.681 1.064-1.196 1.7-1.561 0.754-0.433 1.592-0.681 2.648-0.681 2.39 0 4.505 1.542 4.505 5.431v7.376h-3.643v-6.861c0-1.971-0.717-3.111-2.208-3.111-1.092 0-1.886 0.685-2.188 1.527-0.105 0.29-0.153 0.685-0.153 1.016v7.433h-3.643v-7.143c0-1.674-0.689-2.836-2.16-2.836-1.177 0-1.914 0.865-2.216 1.606-0.129 0.316-0.169 0.681-0.169 1.023v7.346h-3.647v-12.522h3.462zM81.337 11.671v2.362h0.101c0.669-1.806 2.257-2.644 3.651-2.644 0.351 0 0.544 0.026 0.826 0.079v3.28c-0.334-0.045-0.645-0.090-1.080-0.090-1.58 0-2.68 0.858-2.958 2.2-0.060 0.278-0.081 0.579-0.081 0.925v6.413h-3.74v-12.526h3.28zM90.992 7.522v3.942h3.159v3.19h-3.159v4.706c0 1.523 0.415 2.261 1.648 2.261 0.58 0 1.007-0.068 1.378-0.154l0.048 2.644c-0.496 0.173-1.551 0.361-2.623 0.361-1.261 0-2.313-0.41-2.954-1.046-0.733-0.726-1.072-1.915-1.072-3.607v-12.296h3.574zM39.968 24.192h-3.627v-16.671h3.627v16.671zM30.297 19.72c0 0.229-0.020 0.47-0.089 0.677-0.282 0.869-1.245 1.602-2.446 1.602-1.003 0-1.801-0.53-1.801-1.655 0-1.719 2.031-2.197 4.34-2.185v1.561h-0.004zM33.919 16.722c0-2.84-1.297-5.334-5.686-5.334-2.253 0-4.042 0.591-5.017 1.117l0.713 2.279c0.89-0.527 2.313-0.959 3.659-0.959 2.228-0.004 2.591 1.177 2.591 1.933v0.181c-4.856-0.008-7.922 1.561-7.922 4.758 0 1.952 1.56 3.78 4.276 3.78 1.672 0 3.067-0.621 3.905-1.617h0.081c0 0 0.556 2.163 3.611 1.335-0.161-0.903-0.214-1.862-0.214-3.017v-4.457h0.004zM4.039 7.522c0.375 1.764 1.439 6.887 1.439 6.887 0.447 2.106 0.858 4.314 1.169 6.060h0.056c0.302-1.854 0.778-3.611 1.285-5.785l1.793-7.162h3.969l1.676 7.346c0.439 2.042 0.79 3.618 1.068 5.518h0.052c0.302-1.918 0.697-3.558 1.128-5.657l1.612-7.207h3.808l-4.719 16.671c-3.006 0.613-4.159-0.515-4.57-2.306-0.411-1.794-1.217-5.206-1.217-5.206-0.415-1.869-0.738-3.186-0.963-5.104h-0.056c-0.322 1.9-0.661 3.231-1.161 5.1l-1.979 7.519c-3.071 0.572-4.134-0.275-4.723-2.573-0.508-1.967-3.675-14.098-3.675-14.098l4.006-0.004zM72.012 19.72c0 0.229-0.020 0.47-0.089 0.677-0.282 0.869-1.245 1.602-2.446 1.602-1.003 0-1.801-0.53-1.801-1.655 0-1.719 2.031-2.197 4.34-2.185v1.561h-0.004zM75.635 16.722c0-2.84-1.297-5.334-5.686-5.334-2.253 0-4.042 0.591-5.017 1.117l0.713 2.279c0.891-0.527 2.313-0.959 3.659-0.959 2.224-0.004 2.591 1.177 2.591 1.933v0.181c-4.852-0.008-7.918 1.561-7.918 4.758 0 1.952 1.563 3.78 4.275 3.78 1.668 0 3.067-0.621 3.901-1.617h0.085c0 0 0.556 2.163 3.611 1.335-0.161-0.903-0.214-1.862-0.214-3.017v-4.457z"></path>
<path fill="#ffc124" style="fill: var(--color15, #ffc124)" d="M108.852 18.451c0.358 0.609 0.334 1.288-0.048 1.599l-6.596 4.521c-0.687 0.389-1.715-0.082-2.298-1.068-0.586-0.99-0.482-2.093 0.205-2.482l7.302-3.323c0.458-0.173 1.076 0.145 1.434 0.754zM117.533 18.451c0.361-0.609 0.976-0.923 1.434-0.758l7.306 3.323c0.687 0.389 0.787 1.493 0.205 2.482-0.586 0.986-1.618 1.453-2.302 1.068l-6.595-4.521c-0.377-0.306-0.406-0.99-0.048-1.595zM113.191 20.902c0.719 0 1.309 0.361 1.39 0.837l0.711 7.848c0 0.778-0.928 1.414-2.097 1.414-1.165 0-2.097-0.636-2.097-1.414l0.707-7.848c0.080-0.475 0.671-0.837 1.386-0.837zM117.581 11.954l6.595-4.525c0.683-0.389 1.715 0.079 2.302 1.068 0.583 0.99 0.482 2.094-0.205 2.482l-7.306 3.327c-0.458 0.165-1.077-0.149-1.434-0.758s-0.329-1.288 0.048-1.595zM107.418 14.307l-7.302-3.327c-0.683-0.389-0.787-1.493-0.205-2.482s1.615-1.457 2.298-1.068l6.596 4.525c0.382 0.303 0.406 0.986 0.048 1.595s-0.976 0.923-1.434 0.758zM111.805 10.262l-0.707-7.848c0-0.778 0.928-1.414 2.097-1.414s2.097 0.636 2.097 1.414l-0.711 7.848c-0.081 0.471-0.671 0.837-1.39 0.837-0.715 0-1.305-0.365-1.386-0.837zM128.262 24.539v-0.196h0.181c0.061 0 0.101 0.039 0.101 0.098 0 0.055-0.040 0.098-0.101 0.098h-0.181zM128.113 24.896c0 0.020 0.016 0.039 0.040 0.039h0.077c0.019 0 0.040-0.020 0.040-0.039v-0.224h0.125l0.101 0.236c0.008 0.016 0.019 0.027 0.035 0.027h0.093c0.029 0 0.048-0.027 0.037-0.055-0.037-0.071-0.073-0.145-0.109-0.22 0.059-0.020 0.152-0.079 0.152-0.22 0-0.149-0.125-0.236-0.249-0.236h-0.301c-0.021 0-0.040 0.020-0.040 0.039v0.652zM127.787 24.57c0-0.318 0.265-0.577 0.591-0.577 0.325 0 0.59 0.255 0.59 0.577 0 0.318-0.261 0.577-0.59 0.577-0.33 0-0.591-0.259-0.591-0.577zM127.647 24.57c0 0.393 0.326 0.715 0.731 0.715 0.401 0 0.73-0.322 0.73-0.715s-0.329-0.715-0.73-0.715c-0.406 0-0.731 0.322-0.731 0.715z"></path>
</symbol>
<symbol id="icon-oyo" viewBox="0 0 91 32">
<path fill="#ee2e24" style="fill: var(--color16, #ee2e24)" d="M75.397 31.686c8.582 0 15.565-7.068 15.565-15.754 0-8.691-6.983-15.754-15.565-15.754-8.584 0-15.565 7.063-15.565 15.754 0 8.686 6.981 15.754 15.565 15.754zM75.397 10.314c3.058 0 5.549 2.52 5.549 5.616s-2.492 5.613-5.551 5.613c-3.060 0-5.547-2.517-5.547-5.614 0-3.099 2.489-5.618 5.547-5.618l0.002 0.003zM16.674 31.686c8.582 0 15.565-7.068 15.565-15.754 0-8.691-6.983-15.754-15.565-15.754-8.58 0-15.565 7.063-15.565 15.754 0 8.686 6.984 15.754 15.565 15.754zM16.674 10.314c3.060 0 5.549 2.52 5.549 5.616s-2.489 5.613-5.549 5.613c-3.058 0-5.546-2.517-5.546-5.614 0-3.099 2.489-5.618 5.546-5.618v0.003zM46.027 9.959l-4.779-9.576h-11.188l10.45 20.949v9.862h11.035v-9.862l10.45-20.949h-11.194l-4.775 9.576z"></path>
</symbol>
<symbol id="icon-microsoft" viewBox="0 0 142 32">
<path fill="#737373" style="fill: var(--color17, #737373)" d="M49.993 18.279l-0.842 2.372h-0.070c-0.14-0.535-0.398-1.349-0.819-2.326l-4.516-11.279h-4.422v17.977h2.925v-11.093c0-0.698 0-1.488-0.023-2.465-0.023-0.488-0.070-0.86-0.094-1.14h0.070c0.14 0.698 0.304 1.209 0.421 1.535l5.428 13.116h2.059l5.382-13.233c0.117-0.302 0.234-0.907 0.351-1.419h0.070c-0.070 1.326-0.117 2.512-0.14 3.233v11.395h3.112v-17.953h-4.258l-4.633 11.279zM61.832 12.070h3.042v12.884h-3.042v-12.884zM63.376 6.628c-0.515 0-0.936 0.186-1.287 0.512s-0.538 0.744-0.538 1.256c0 0.488 0.187 0.907 0.538 1.233s0.772 0.488 1.287 0.488 0.959-0.186 1.287-0.488c0.351-0.326 0.538-0.744 0.538-1.233s-0.187-0.907-0.538-1.256c-0.304-0.326-0.749-0.512-1.287-0.512zM75.66 11.953c-0.561-0.116-1.146-0.186-1.708-0.186-1.381 0-2.644 0.302-3.697 0.907s-1.895 1.442-2.433 2.488c-0.561 1.070-0.842 2.302-0.842 3.721 0 1.233 0.281 2.326 0.819 3.326 0.538 0.977 1.287 1.767 2.293 2.302 0.959 0.535 2.082 0.814 3.346 0.814 1.451 0 2.691-0.302 3.673-0.86l0.023-0.023v-2.791l-0.117 0.093c-0.445 0.326-0.959 0.605-1.474 0.767-0.538 0.186-1.030 0.279-1.451 0.279-1.217 0-2.176-0.349-2.855-1.116-0.702-0.744-1.053-1.767-1.053-3.047 0-1.326 0.351-2.372 1.076-3.14s1.685-1.163 2.854-1.163c0.983 0 1.989 0.326 2.901 0.977l0.117 0.093v-2.953l-0.023-0.023c-0.398-0.163-0.842-0.349-1.451-0.465zM85.697 11.86c-0.749 0-1.451 0.233-2.059 0.721-0.515 0.419-0.866 1.023-1.17 1.744h-0.023v-2.256h-3.042v12.884h3.042v-6.581c0-1.116 0.234-2.047 0.749-2.721 0.515-0.698 1.17-1.047 1.965-1.047 0.281 0 0.561 0.070 0.912 0.116 0.328 0.093 0.562 0.186 0.725 0.302l0.117 0.093v-3.023l-0.070-0.023c-0.211-0.14-0.632-0.209-1.147-0.209zM93.98 11.791c-2.129 0-3.837 0.628-5.031 1.861-1.217 1.232-1.802 2.93-1.802 5.070 0 2 0.608 3.628 1.778 4.814 1.17 1.163 2.761 1.767 4.75 1.767 2.082 0 3.744-0.628 4.937-1.884 1.217-1.256 1.802-2.93 1.802-5 0-2.047-0.562-3.674-1.708-4.86-1.1-1.186-2.714-1.767-4.726-1.767zM96.413 21.697c-0.562 0.721-1.451 1.070-2.55 1.070s-1.989-0.349-2.621-1.116c-0.632-0.721-0.936-1.768-0.936-3.093 0-1.372 0.328-2.419 0.936-3.163 0.632-0.744 1.497-1.116 2.597-1.116 1.076 0 1.919 0.349 2.527 1.070s0.936 1.768 0.936 3.14c-0.047 1.395-0.304 2.488-0.889 3.209zM107.2 17.418c-0.959-0.395-1.568-0.698-1.848-0.953-0.234-0.233-0.351-0.558-0.351-0.977 0-0.349 0.14-0.698 0.491-0.93s0.749-0.349 1.334-0.349c0.515 0 1.053 0.093 1.568 0.233s0.983 0.349 1.357 0.628l0.117 0.093v-2.837l-0.070-0.023c-0.351-0.14-0.819-0.279-1.381-0.395-0.561-0.093-1.076-0.14-1.497-0.14-1.451 0-2.644 0.349-3.58 1.116-0.936 0.721-1.381 1.698-1.381 2.837 0 0.605 0.094 1.14 0.304 1.581s0.515 0.861 0.936 1.209c0.421 0.326 1.030 0.698 1.872 1.047 0.702 0.302 1.24 0.535 1.568 0.721s0.538 0.395 0.702 0.558c0.117 0.186 0.187 0.419 0.187 0.721 0 0.86-0.655 1.279-1.989 1.279-0.515 0-1.053-0.093-1.685-0.302s-1.217-0.512-1.708-0.86l-0.117-0.093v2.953l0.070 0.023c0.445 0.209 0.983 0.349 1.638 0.512 0.655 0.116 1.24 0.209 1.755 0.209 1.568 0 2.855-0.349 3.767-1.116 0.936-0.744 1.427-1.698 1.427-2.93 0-0.86-0.234-1.628-0.749-2.209-0.679-0.558-1.521-1.14-2.737-1.605zM118.711 11.791c-2.129 0-3.837 0.628-5.031 1.861s-1.802 2.93-1.802 5.070c0 2 0.608 3.628 1.778 4.814 1.17 1.163 2.761 1.767 4.75 1.767 2.082 0 3.744-0.628 4.937-1.884 1.217-1.256 1.802-2.93 1.802-5 0-2.047-0.561-3.674-1.708-4.86-1.1-1.186-2.714-1.767-4.726-1.767zM121.121 21.697c-0.562 0.721-1.451 1.070-2.55 1.070-1.123 0-1.989-0.349-2.621-1.116-0.632-0.721-0.936-1.768-0.936-3.093 0-1.372 0.328-2.419 0.936-3.163 0.632-0.744 1.497-1.116 2.597-1.116 1.053 0 1.919 0.349 2.527 1.070s0.936 1.768 0.936 3.14c0 1.395-0.304 2.488-0.889 3.209zM141.407 14.558v-2.488h-3.065v-3.814l-0.094 0.023-2.972 0.884v2.907h-4.586v-1.628c0-0.744 0.187-1.326 0.514-1.698 0.329-0.372 0.82-0.558 1.428-0.558 0.421 0 0.866 0.093 1.358 0.302l0.117 0.070v-2.628l-0.070-0.023c-0.421-0.14-0.983-0.233-1.708-0.233-0.912 0-1.708 0.209-2.433 0.558-0.725 0.395-1.264 0.93-1.662 1.651-0.398 0.698-0.608 1.488-0.608 2.395v1.791h-2.129v2.465h2.129v10.419h3.065v-10.395h4.586v6.628c0 2.721 1.287 4.093 3.861 4.093 0.421 0 0.865-0.070 1.287-0.139 0.444-0.093 0.772-0.209 0.959-0.302l0.023-0.023v-2.488l-0.117 0.093c-0.187 0.116-0.351 0.209-0.631 0.279-0.234 0.070-0.444 0.093-0.609 0.093-0.608 0-1.029-0.139-1.333-0.488-0.281-0.326-0.421-0.86-0.421-1.651v-6.093h3.111z"></path>
<path fill="#f25022" style="fill: var(--color18, #f25022)" d="M0.109 1h14.343v14.256h-14.343v-14.256z"></path>
<path fill="#7fba00" style="fill: var(--color19, #7fba00)" d="M15.949 1h14.343v14.256h-14.343v-14.256z"></path>
<path fill="#00a4ef" style="fill: var(--color20, #00a4ef)" d="M0.109 16.744h14.343v14.256h-14.343v-14.256z"></path>
<path fill="#ffb900" style="fill: var(--color21, #ffb900)" d="M15.949 16.744h14.343v14.256h-14.343v-14.256z"></path>
</symbol>
<symbol id="icon-fedex" viewBox="0 0 101 32">
<path fill="#f60" style="fill: var(--color22, #f60)" d="M75.126 30.102l8.372-9.236-8.372-9.238h8.834l4.147 4.487 3.993-4.487h8.525l-8.332 9.2 8.447 9.275h-8.87l-4.109-4.524-4.070 4.524h-8.564z"></path>
<path fill="#f60" style="fill: var(--color22, #f60)" d="M75.126 7.486h-9.482v4.141h9.482v6.241h-9.482v5.729h9.482v6.504h-16.452v-29.102h16.452v6.486z"></path>
<path fill="#652c8f" style="fill: var(--color23, #652c8f)" d="M51.735 1v11.91h-0.076c-1.536-1.734-3.456-2.337-5.683-2.337-4.563 0-8 3.045-9.206 7.072-1.376-4.437-4.924-7.155-10.185-7.155-4.273 0-7.647 1.883-9.408 4.952v-3.814h-8.832v-4.141h9.638v-6.487h-17.511v29.103h7.873v-12.234h7.847c-0.234 0.899-0.359 1.861-0.359 2.876 0 6.071 4.723 10.33 10.751 10.33 5.069 0 8.409-2.337 10.176-6.597h-6.747c-0.913 1.28-1.605 1.66-3.43 1.66-2.116 0-3.94-1.812-3.94-3.961h13.738c0.596 4.822 4.421 8.98 9.671 8.98 2.265 0 4.338-1.094 5.606-2.94h0.076v1.884h6.94v-29.102h-6.94zM22.863 17.956c0.438-1.848 1.898-3.057 3.721-3.057 2.006 0 3.392 1.171 3.757 3.057 0.154 0-7.478 0-7.478 0zM47.523 25.671c-2.558 0-4.148-2.34-4.148-4.784 0-2.612 1.383-5.124 4.148-5.124 2.867 0 4.010 2.512 4.010 5.124-0 2.477-1.211 4.784-4.010 4.784z"></path>
</symbol>
<symbol id="icon-amazon" viewBox="0 0 105 32">
<path fill="#f90" style="fill: var(--color24, #f90)" d="M64.683 25.025c-6.009 4.548-14.719 6.975-22.217 6.975-10.515 0-19.98-3.994-27.142-10.636-0.563-0.522-0.059-1.234 0.617-0.827 7.728 4.618 17.284 7.396 27.155 7.396 6.657 0 13.98-1.414 20.714-4.35 1.017-0.444 1.868 0.684 0.873 1.442z"></path>
<path fill="#f90" style="fill: var(--color24, #f90)" d="M67.181 22.090c-0.765-1.008-5.077-0.476-7.013-0.24-0.59 0.074-0.68-0.453-0.148-0.832 3.434-2.482 9.070-1.766 9.727-0.934 0.657 0.837-0.171 6.638-3.398 9.406-0.495 0.425-0.968 0.199-0.747-0.365 0.725-1.858 2.35-6.023 1.58-7.035z"></path>
<path fill="#1d1e25" style="fill: var(--color12, #1d1e25)" d="M60.304 3.495v-2.413c0-0.365 0.27-0.61 0.594-0.61h10.519c0.338 0 0.608 0.25 0.608 0.61v2.066c-0.004 0.347-0.288 0.8-0.792 1.516l-5.451 7.992c2.026-0.051 4.164 0.259 6 1.322 0.414 0.24 0.527 0.592 0.558 0.938v2.575c0 0.351-0.378 0.763-0.774 0.55-3.236-1.743-7.535-1.932-11.113 0.018-0.365 0.203-0.747-0.203-0.747-0.555v-2.445c0-0.393 0.004-1.063 0.387-1.659l6.315-9.3h-5.496c-0.338 0-0.608-0.245-0.608-0.606z"></path>
<path fill="#1d1e25" style="fill: var(--color12, #1d1e25)" d="M21.932 18.549h-3.2c-0.306-0.023-0.549-0.259-0.572-0.559v-16.867c0-0.337 0.275-0.606 0.617-0.606h2.984c0.311 0.014 0.558 0.259 0.581 0.564v2.205h0.058c0.779-2.131 2.242-3.125 4.213-3.125 2.003 0 3.254 0.994 4.154 3.125 0.774-2.131 2.534-3.125 4.42-3.125 1.341 0 2.809 0.569 3.704 1.844 1.013 1.419 0.806 3.481 0.806 5.288l-0.004 10.645c0 0.337-0.275 0.61-0.617 0.61h-3.196c-0.32-0.023-0.576-0.287-0.576-0.61v-8.94c0-0.712 0.063-2.487-0.090-3.162-0.239-1.132-0.954-1.451-1.882-1.451-0.774 0-1.584 0.532-1.913 1.382s-0.297 2.274-0.297 3.231v8.94c0 0.337-0.275 0.61-0.617 0.61h-3.196c-0.324-0.023-0.576-0.287-0.576-0.61l-0.004-8.94c0-1.881 0.302-4.65-1.972-4.65-2.3 0-2.21 2.699-2.21 4.65v8.94c0 0.337-0.275 0.61-0.617 0.61z"></path>
<path fill="#1d1e25" style="fill: var(--color12, #1d1e25)" d="M81.080 0.162c4.749 0 7.319 4.188 7.319 9.513 0 5.145-2.84 9.226-7.319 9.226-4.663 0-7.202-4.188-7.202-9.406 0-5.251 2.57-9.332 7.202-9.332zM81.107 3.605c-2.359 0-2.507 3.3-2.507 5.357 0 2.062-0.031 6.462 2.48 6.462 2.48 0 2.597-3.55 2.597-5.713 0-1.424-0.058-3.125-0.477-4.474-0.36-1.174-1.076-1.632-2.093-1.632z"></path>
<path fill="#1d1e25" style="fill: var(--color12, #1d1e25)" d="M94.557 18.549h-3.187c-0.32-0.023-0.576-0.287-0.576-0.61l-0.004-16.871c0.027-0.31 0.293-0.55 0.617-0.55h2.966c0.279 0.014 0.509 0.208 0.572 0.471v2.579h0.059c0.896-2.307 2.151-3.407 4.362-3.407 1.436 0 2.836 0.532 3.736 1.988 0.837 1.35 0.837 3.619 0.837 5.251v10.617c-0.036 0.296-0.302 0.532-0.617 0.532h-3.209c-0.293-0.023-0.536-0.245-0.567-0.532v-9.161c0-1.844 0.207-4.544-2.003-4.544-0.779 0-1.494 0.536-1.85 1.35-0.45 1.031-0.509 2.057-0.509 3.194v9.083c-0.004 0.337-0.284 0.61-0.626 0.61z"></path>
<path fill="#1d1e25" style="fill: var(--color12, #1d1e25)" d="M51.918 10.493v-0.712c-2.318 0-4.762 0.508-4.762 3.309 0 1.419 0.72 2.38 1.949 2.38 0.896 0 1.706-0.569 2.215-1.493 0.63-1.137 0.599-2.205 0.599-3.485zM55.145 18.503c-0.212 0.194-0.518 0.208-0.756 0.079-1.062-0.906-1.256-1.327-1.836-2.191-1.755 1.84-3.002 2.39-5.275 2.39-2.696 0-4.789-1.706-4.789-5.122 0-2.667 1.404-4.484 3.412-5.371 1.737-0.786 4.164-0.924 6.018-1.142v-0.425c0-0.781 0.058-1.706-0.392-2.38-0.387-0.606-1.134-0.855-1.796-0.855-1.22 0-2.305 0.643-2.57 1.974-0.054 0.296-0.266 0.587-0.558 0.601l-3.101-0.342c-0.261-0.060-0.554-0.277-0.477-0.689 0.711-3.864 4.114-5.029 7.157-5.029 1.557 0 3.592 0.425 4.821 1.636 1.557 1.493 1.409 3.485 1.409 5.653v5.121c0 1.539 0.621 2.214 1.206 3.046 0.203 0.296 0.248 0.652-0.013 0.874-0.653 0.559-1.814 1.599-2.453 2.182l-0.004-0.009z"></path>
<path fill="#1d1e25" style="fill: var(--color12, #1d1e25)" d="M9.963 10.493v-0.712c-2.314 0-4.758 0.508-4.758 3.31 0 1.419 0.716 2.38 1.944 2.38 0.9 0 1.706-0.569 2.215-1.493 0.63-1.137 0.599-2.205 0.599-3.485zM13.19 18.503c-0.212 0.194-0.518 0.208-0.756 0.078-1.062-0.906-1.251-1.327-1.836-2.191-1.755 1.84-2.998 2.39-5.275 2.39-2.692 0-4.789-1.706-4.789-5.122 0-2.667 1.409-4.484 3.412-5.371 1.737-0.786 4.164-0.924 6.018-1.142v-0.425c0-0.781 0.059-1.706-0.387-2.38-0.392-0.606-1.139-0.855-1.796-0.855-1.22 0-2.309 0.643-2.575 1.974-0.054 0.296-0.266 0.587-0.554 0.601l-3.106-0.342c-0.261-0.060-0.549-0.277-0.477-0.689 0.716-3.864 4.114-5.029 7.157-5.029 1.557 0 3.592 0.425 4.821 1.636 1.557 1.493 1.409 3.485 1.409 5.653v5.122c0 1.539 0.621 2.214 1.206 3.046 0.207 0.296 0.252 0.652-0.009 0.874-0.653 0.559-1.814 1.599-2.453 2.182l-0.009-0.009z"></path>
</symbol>
<symbol id="icon-airbnb" viewBox="0 0 105 32">
<path fill="#ff385c" style="fill: var(--color25, #ff385c)" d="M30.175 22.679c-0.162-0.39-0.314-0.8-0.476-1.15l-0.75-1.67-0.030-0.030c-2.23-4.8-4.613-9.68-7.137-14.48l-0.101-0.2c-0.253-0.47-0.507-0.99-0.77-1.47-0.324-0.57-0.639-1.18-1.156-1.76-0.504-0.607-1.138-1.096-1.857-1.432s-1.504-0.51-2.299-0.51c-0.795 0-1.581 0.174-2.3 0.51s-1.353 0.825-1.857 1.432c-0.476 0.58-0.831 1.19-1.156 1.76-0.253 0.52-0.507 1.030-0.77 1.5l-0.101 0.2c-2.484 4.8-4.907 9.68-7.137 14.48l-0.061 0.060c-0.223 0.52-0.487 1.060-0.74 1.64-0.162 0.35-0.324 0.73-0.487 1.15-0.438 1.1-0.578 2.293-0.406 3.462s0.65 2.274 1.387 3.206c0.737 0.932 1.707 1.658 2.815 2.107s2.315 0.606 3.503 0.454c1.139-0.148 2.236-0.522 3.224-1.1 1.318-0.73 2.585-1.79 4.004-3.32 1.419 1.53 2.717 2.59 4.004 3.33 1.238 0.717 2.64 1.112 4.075 1.15 1.662 0.007 3.27-0.58 4.528-1.651s2.080-2.556 2.315-4.179c0.271-1.166 0.18-2.386-0.264-3.5v0.010zM15.618 24.339c-1.744-2.2-2.879-4.22-3.264-5.95-0.16-0.641-0.194-1.306-0.101-1.96 0.071-0.51 0.264-0.96 0.527-1.34 0.608-0.87 1.673-1.41 2.839-1.41 0.554-0.017 1.103 0.102 1.598 0.347s0.922 0.606 1.24 1.053c0.264 0.4 0.456 0.84 0.517 1.35 0.101 0.58 0.061 1.25-0.101 1.96-0.385 1.7-1.521 3.74-3.254 5.95zM28.533 25.819c-0.115 0.824-0.447 1.604-0.963 2.262s-1.197 1.171-1.977 1.488c-0.77 0.32-1.622 0.41-2.453 0.32-0.811-0.1-1.622-0.36-2.453-0.84-1.38-0.841-2.621-1.887-3.68-3.1 2.129-2.6 3.416-4.97 3.903-7.080 0.233-1 0.264-1.9 0.162-2.73-0.127-0.787-0.424-1.537-0.872-2.2-0.511-0.719-1.194-1.303-1.988-1.7s-1.674-0.597-2.564-0.58c-1.876 0-3.548 0.86-4.562 2.27-0.456 0.661-0.751 1.418-0.862 2.21-0.132 0.84-0.101 1.77 0.162 2.73 0.487 2.11 1.804 4.51 3.903 7.1-1.041 1.236-2.285 2.291-3.68 3.12-0.841 0.48-1.642 0.73-2.453 0.83-1.261 0.159-2.535-0.179-3.545-0.941s-1.674-1.887-1.848-3.129c-0.101-0.8-0.030-1.6 0.294-2.5 0.101-0.32 0.253-0.64 0.416-1.020 0.223-0.52 0.487-1.060 0.74-1.6l0.041-0.070c2.19-4.77 4.582-9.64 7.066-14.41l0.101-0.2c0.253-0.48 0.507-0.99 0.77-1.47 0.264-0.51 0.547-1 0.912-1.4 0.316-0.372 0.711-0.671 1.156-0.876s0.932-0.312 1.424-0.312c0.492 0 0.978 0.106 1.424 0.312s0.841 0.504 1.156 0.876c0.355 0.4 0.649 0.89 0.912 1.4 0.253 0.48 0.507 1 0.77 1.47l0.101 0.2c2.474 4.77 4.866 9.64 7.096 14.41l0.030 0.030c0.264 0.52 0.487 1.1 0.74 1.6 0.162 0.39 0.324 0.7 0.426 1.030 0.193 0.9 0.294 1.7 0.193 2.5zM42.645 24.119c-0.764 0.011-1.521-0.148-2.214-0.465s-1.305-0.783-1.791-1.365c-1.091-1.24-1.67-2.839-1.622-4.48-0.017-1.677 0.581-3.303 1.683-4.58 0.51-0.589 1.144-1.061 1.859-1.383s1.492-0.484 2.277-0.477c0.739-0.020 1.471 0.146 2.127 0.482s1.215 0.831 1.624 1.438l0.101-1.57h2.96v12.080h-2.97l-0.101-1.76c-0.422 0.649-1.004 1.18-1.693 1.544s-1.46 0.548-2.241 0.536zM43.415 21.239c0.588 0 1.105-0.16 1.592-0.45 0.446-0.32 0.811-0.74 1.095-1.25 0.253-0.51 0.385-1.12 0.385-1.8 0.039-0.59-0.077-1.181-0.338-1.714s-0.658-0.99-1.152-1.326c-0.475-0.292-1.022-0.446-1.582-0.446s-1.107 0.155-1.581 0.446c-0.446 0.32-0.811 0.74-1.095 1.25-0.268 0.562-0.4 1.179-0.385 1.8-0.039 0.591 0.077 1.181 0.338 1.714s0.658 0.99 1.152 1.326c0.476 0.29 0.993 0.45 1.571 0.45zM54.719 8.459c0 0.35-0.061 0.67-0.223 0.93-0.162 0.25-0.385 0.48-0.679 0.64s-0.608 0.22-0.933 0.22c-0.324 0-0.649-0.060-0.943-0.22-0.278-0.153-0.512-0.373-0.679-0.64-0.157-0.285-0.234-0.606-0.223-0.93 0-0.36 0.071-0.68 0.223-0.93 0.162-0.3 0.395-0.48 0.679-0.64 0.294-0.16 0.608-0.23 0.943-0.23 0.323-0.007 0.642 0.068 0.926 0.219s0.524 0.372 0.696 0.641c0.148 0.292 0.221 0.614 0.213 0.94zM51.272 23.759v-12.060h3.224v12.080h-3.234l0.010-0.020zM63.113 14.859v0.040c-0.152-0.070-0.355-0.1-0.507-0.13-0.203-0.040-0.365-0.040-0.558-0.040-0.902 0-1.582 0.26-2.028 0.8-0.487 0.55-0.71 1.32-0.71 2.31v5.93h-3.234v-12.080h2.97l0.101 1.83c0.324-0.64 0.71-1.12 1.257-1.48 0.545-0.35 1.186-0.524 1.835-0.5 0.233 0 0.456 0.020 0.649 0.060 0.101 0.030 0.162 0.030 0.223 0.060v3.2zM64.41 23.759v-17.020h3.224v6.5c0.456-0.58 0.973-1.030 1.622-1.38 1.027-0.497 2.194-0.638 3.312-0.4s2.123 0.84 2.851 1.71c1.093 1.243 1.672 2.845 1.622 4.49 0.017 1.677-0.581 3.303-1.683 4.58-0.51 0.589-1.144 1.061-1.859 1.383s-1.492 0.484-2.277 0.477c-0.739 0.020-1.471-0.146-2.127-0.482s-1.215-0.831-1.624-1.438l-0.101 1.57-2.96 0.030v-0.020zM70.645 21.239c0.578 0 1.095-0.16 1.581-0.45 0.446-0.32 0.811-0.74 1.095-1.25 0.264-0.51 0.385-1.12 0.385-1.8 0-0.67-0.122-1.28-0.385-1.79-0.266-0.492-0.64-0.919-1.095-1.25-0.474-0.292-1.022-0.446-1.581-0.446s-1.107 0.155-1.581 0.446c-0.456 0.32-0.811 0.74-1.105 1.25-0.268 0.562-0.4 1.179-0.385 1.8-0.040 0.591 0.077 1.181 0.338 1.714s0.658 0.99 1.152 1.326c0.476 0.29 0.993 0.45 1.581 0.45zM78.258 23.769v-12.080h2.97l0.101 1.57c0.373-0.602 0.903-1.094 1.534-1.427s1.34-0.492 2.055-0.463c0.817-0.014 1.62 0.21 2.309 0.644s1.233 1.059 1.563 1.796c0.355 0.76 0.547 1.7 0.547 2.75v7.24h-3.234v-6.82c0-0.84-0.193-1.5-0.578-1.99-0.385-0.48-0.912-0.74-1.581-0.74-0.487 0-0.912 0.1-1.287 0.32-0.355 0.23-0.649 0.52-0.872 0.93-0.225 0.415-0.337 0.88-0.324 1.35v6.92h-3.204zM90.951 23.769v-17.040h3.234v6.5c0.438-0.583 1.008-1.058 1.664-1.386s1.381-0.501 2.117-0.504c0.764-0.011 1.521 0.148 2.214 0.465s1.305 0.783 1.791 1.365c1.085 1.242 1.66 2.841 1.612 4.48 0.018 1.677-0.58 3.304-1.683 4.58-0.51 0.589-1.144 1.061-1.859 1.383s-1.492 0.484-2.277 0.477c-0.739 0.020-1.471-0.146-2.127-0.482s-1.215-0.831-1.624-1.438l-0.091 1.57-2.97 0.030zM97.216 21.239c0.588 0 1.105-0.16 1.581-0.45 0.456-0.32 0.811-0.74 1.105-1.25 0.253-0.51 0.385-1.12 0.385-1.8 0.039-0.59-0.077-1.181-0.338-1.714s-0.658-0.99-1.152-1.326c-0.474-0.292-1.022-0.446-1.581-0.446s-1.107 0.155-1.582 0.446c-0.446 0.32-0.811 0.74-1.095 1.25-0.283 0.557-0.416 1.177-0.385 1.8-0.040 0.591 0.077 1.181 0.338 1.714s0.658 0.99 1.152 1.326c0.476 0.29 0.963 0.45 1.571 0.45z"></path>
</symbol>
<symbol id="icon-yes2" viewBox="0 0 32 32">
<path fill="none" stroke="#46b277" style="stroke: var(--color26, #46b277)" stroke-linejoin="round" stroke-linecap="round" stroke-miterlimit="4" stroke-width="3.2" d="M11.2 16l3.2 3.2 6.4-6.4M30.4 16c0 7.953-6.447 14.4-14.4 14.4s-14.4-6.447-14.4-14.4c0-7.953 6.447-14.4 14.4-14.4s14.4 6.447 14.4 14.4z"></path>
</symbol>
</defs>
</svg>
